# xmcd CD database file
# Copyright (C) 1995-1998 Ti Kan
#
# Track frame offsets:
#	150
#	19668
#	35718
#	49490
#	67016
#	80029
#	94474
#	110444
#	129656
#	145198
#	162097
#	176524
#	188435
#	205838
#	223399
#
# Disc length: 3136 seconds
#
# Revision: 1
# Processed by: cddbd v1.4b42PL1 Copyright (c) Steve Scherf et al.
# Submitted via: CDex 1.30Release
#
DISCID=e20c3e0f
DTITLE=Kenny Rogers - Original Gold - CD2
DYEAR=1998
DGENRE=Country
TTITLE0=Coward of the country
TTITLE1=The gambler
TTITLE2=You turn the light on
TTITLE3=All my life
TTITLE4=We love each other
TTITLE5=Leve the world away
TTITLE6=Green green grass of home
TTITLE7=Medley
TTITLE8=No dreams
TTITLE9=One man's woman
TTITLE10=You need me
TTITLE11=My world begins and ends with you
TTITLE12=Lay down beside me
TTITLE13=How long
TTITLE14=Maybe you should know
EXTD=YEAR: 1998 ID3G:   2
EXTT0=
EXTT1=
EXTT2=
EXTT3=
EXTT4=
EXTT5=
EXTT6=
EXTT7=
EXTT8=
EXTT9=
EXTT10=
EXTT11=
EXTT12=
EXTT13=
EXTT14=
PLAYORDER=
